<svg width="12" height="7" viewBox="0 0 12 7" fill="none" xmlns="http://www.w3.org/2000/svg">
<path d="M5.90628 6.33336C5.77493 6.33362 5.64847 6.28351 5.55295 6.19336L0.806279 1.44002C0.757155 1.39425 0.717753 1.33905 0.690425 1.27772C0.663098 1.21638 0.648403 1.15017 0.647218 1.08304C0.646034 1.0159 0.658384 0.949218 0.683531 0.886959C0.708678 0.824701 0.746108 0.768144 0.793587 0.720665C0.841066 0.673186 0.897622 0.635757 0.959881 0.610609C1.02214 0.585462 1.08883 0.573112 1.15596 0.574297C1.2231 0.575481 1.28931 0.590176 1.35064 0.617504C1.41197 0.644832 1.46717 0.684233 1.51295 0.733358L5.91295 5.13336L10.4929 0.726691C10.5875 0.634655 10.7143 0.583159 10.8463 0.583159C10.9783 0.583159 11.105 0.634655 11.1996 0.726691C11.2932 0.820441 11.3458 0.947524 11.3458 1.08002C11.3458 1.21252 11.2932 1.33961 11.1996 1.43336L6.26628 6.18669C6.21982 6.23489 6.16379 6.27284 6.10179 6.2981C6.03979 6.32336 5.9732 6.33537 5.90628 6.33336Z" fill="black"/>
</svg>
